<svg xmlns="http://www.w3.org/2000/svg" viewBox="0 0 512 512">
  <defs>
    <linearGradient id="indigo-grad" x1="0%" y1="0%" x2="100%" y2="100%">
      <stop offset="0%" style="stop-color:#6366F1;stop-opacity:1" /> <stop offset="100%" style="stop-color:#4F46E5;stop-opacity:1" /> </linearGradient>
    <linearGradient id="overlay-glow" x1="0%" y1="0%" x2="0%" y2="100%">
      <stop offset="0%" style="stop-color:#FFFFFF;stop-opacity:0.15" />
      <stop offset="100%" style="stop-color:#FFFFFF;stop-opacity:0" />
    </linearGradient>
  </defs>


  <rect x="32" y="32" width="448" height="448" rx="112" ry="112" fill="url(#indigo-grad)" />
  <rect x="32" y="32" width="448" height="448" rx="112" ry="112" fill="url(#overlay-glow)" />

  <g transform="translate(256, 256)" fill="#FFFFFF">
    <path d="M-180 -120 C -180 -200, -100 -240, -10 -240 L 0 -240 L 10 -240 C 100 -240, 180 -200, 180 -120 V 180 C 180 100, 100 60, 10 60 L 0 60 L -10 60 C -100 60, -180 100, -180 180 Z M 0 -240 V 60" opacity="0.9" />
    
    <path d="M 0 -140 L -25 -85 L -80 -60 L -25 -35 L 0 20 L 25 -35 L 80 -60 L 25 -85 Z" />
    <circle cx="-100" cy="20" r="15" />
    <circle cx="100" cy="-100" r="15" />
  </g>
</svg>